<svg width="25" height="24" viewBox="0 0 25 24" fill="none" xmlns="http://www.w3.org/2000/svg">
<path d="M18.3333 3.66667H17.5V2.83333C17.5 2.61232 17.4122 2.40036 17.2559 2.24408C17.0996 2.0878 16.8877 2 16.6667 2C16.4457 2 16.2337 2.0878 16.0774 2.24408C15.9211 2.40036 15.8333 2.61232 15.8333 2.83333V3.66667H9.16667V2.83333C9.16667 2.61232 9.07887 2.40036 8.92259 2.24408C8.76631 2.0878 8.55435 2 8.33333 2C8.11232 2 7.90036 2.0878 7.74408 2.24408C7.5878 2.40036 7.5 2.61232 7.5 2.83333V3.66667H6.66667C5.562 3.66799 4.50296 4.1074 3.72185 4.88852C2.94073 5.66963 2.50132 6.72867 2.5 7.83333V17.8333C2.50132 18.938 2.94073 19.997 3.72185 20.7782C4.50296 21.5593 5.562 21.9987 6.66667 22H18.3333C19.438 21.9987 20.497 21.5593 21.2782 20.7782C22.0593 19.997 22.4987 18.938 22.5 17.8333V7.83333C22.4987 6.72867 22.0593 5.66963 21.2782 4.88852C20.497 4.1074 19.438 3.66799 18.3333 3.66667ZM4.16667 7.83333C4.16667 7.17029 4.43006 6.53441 4.8989 6.06557C5.36774 5.59673 6.00363 5.33333 6.66667 5.33333H18.3333C18.9964 5.33333 19.6323 5.59673 20.1011 6.06557C20.5699 6.53441 20.8333 7.17029 20.8333 7.83333V8.66667H4.16667V7.83333ZM18.3333 20.3333H6.66667C6.00363 20.3333 5.36774 20.0699 4.8989 19.6011C4.43006 19.1323 4.16667 18.4964 4.16667 17.8333V10.3333H20.8333V17.8333C20.8333 18.4964 20.5699 19.1323 20.1011 19.6011C19.6323 20.0699 18.9964 20.3333 18.3333 20.3333Z" fill="#006ee3"/>
<path d="M12.5 15.75C13.1904 15.75 13.75 15.1904 13.75 14.5C13.75 13.8096 13.1904 13.25 12.5 13.25C11.8096 13.25 11.25 13.8096 11.25 14.5C11.25 15.1904 11.8096 15.75 12.5 15.75Z" fill="#006ee3"/>
<path d="M8.33333 15.75C9.02369 15.75 9.58333 15.1904 9.58333 14.5C9.58333 13.8096 9.02369 13.25 8.33333 13.25C7.64298 13.25 7.08333 13.8096 7.08333 14.5C7.08333 15.1904 7.64298 15.75 8.33333 15.75Z" fill="#006ee3"/>
<path d="M16.6667 15.75C17.357 15.75 17.9167 15.1904 17.9167 14.5C17.9167 13.8096 17.357 13.25 16.6667 13.25C15.9763 13.25 15.4167 13.8096 15.4167 14.5C15.4167 15.1904 15.9763 15.75 16.6667 15.75Z" fill="#006ee3"/>
</svg>
