<svg width="25" height="24" viewBox="0 0 25 24" fill="none" xmlns="http://www.w3.org/2000/svg">
<path d="M18.7975 17.0868C18.5 17.0868 18.2025 17.0242 17.9242 16.8998L7.22 11.9543C5.65833 11.2546 4.58083 9.8255 4.39833 8.21953L4.17583 6.26685C4.12667 5.83953 4.26833 5.40673 4.56333 5.07959C4.83917 4.7728 5.22 4.59044 5.63417 4.56696C6.32333 4.53018 6.9725 4.90741 7.225 5.51239L8.275 8.03483L19.5892 13.3685C20.6383 13.8021 21.1183 14.9573 20.6583 15.9442C20.435 16.4224 20.0258 16.7847 19.5058 16.9671C19.275 17.0477 19.0358 17.0876 18.7967 17.0876L18.7975 17.0868ZM22.5 20.2174C22.5 19.7853 22.1275 19.4347 21.6667 19.4347H3.33333C2.8725 19.4347 2.5 19.7853 2.5 20.2174C2.5 20.6494 2.8725 21 3.33333 21H21.6667C22.1275 21 22.5 20.6494 22.5 20.2174ZM16.345 10.0877L15.3442 4.97785C15.2758 4.26408 14.7983 3.64423 14.0958 3.35857L13.435 3.09404C13.0467 2.93908 12.6058 2.97743 12.2525 3.19578C11.9017 3.41492 11.6925 3.78276 11.6942 4.17643V7.89474L16.345 10.0869V10.0877Z" fill="#006ee3"/>
</svg>
