<svg width="25" height="24" viewBox="0 0 25 24" fill="none" xmlns="http://www.w3.org/2000/svg">
<g clip-path="url(#clip0_3461_30673)">
<path d="M21.7149 7.16034C21.5692 7.41063 21.366 7.62698 21.1203 7.79357L11.3484 14.2732C10.6546 14.7434 9.84549 15.039 8.99729 15.1321C8.14909 15.2251 7.28976 15.1127 6.50033 14.8053L4.56894 14.045C4.35908 13.9622 4.16913 13.8401 4.0105 13.6862C3.85187 13.5323 3.72784 13.3496 3.64586 13.1493C3.56951 12.9677 3.53331 12.7733 3.53949 12.5781C3.54568 12.3828 3.59412 12.1908 3.68183 12.0139C3.82614 11.725 4.0631 11.4863 4.35911 11.3318C4.65512 11.1772 4.99513 11.1146 5.33094 11.1528L8.19323 11.5029L18.6212 4.70531C19.0596 4.38841 19.6131 4.24838 20.1605 4.31585C20.708 4.38331 21.2049 4.65278 21.5425 5.06532C21.7096 5.26888 21.8314 5.5023 21.9004 5.7515C21.9694 6.0007 21.9842 6.26052 21.944 6.51529C21.909 6.74179 21.8316 6.9606 21.7153 7.16144L21.7149 7.16034ZM22.5 19.2124C22.5001 19.109 22.4785 19.0065 22.4366 18.9109C22.3947 18.8153 22.3333 18.7285 22.2559 18.6553C22.1784 18.5821 22.0865 18.5241 21.9853 18.4845C21.8841 18.4449 21.7756 18.4245 21.6661 18.4245H3.31627C3.09817 18.4289 2.8906 18.5139 2.73802 18.6611C2.58544 18.8084 2.5 19.0062 2.5 19.2122C2.5 19.4183 2.58544 19.6161 2.73802 19.7633C2.8906 19.9106 3.09817 19.9955 3.31627 20H21.6661C21.8872 20 22.0994 19.917 22.2557 19.7693C22.4121 19.6216 22.5 19.4213 22.5 19.2124ZM13.9944 5.8071L8.73785 4.16439C8.39424 4.02263 8.01645 3.97116 7.64442 4.01541C7.27239 4.05967 6.91992 4.19802 6.62427 4.41584L6.05853 4.83528C5.89557 4.95611 5.76692 5.11327 5.68415 5.29265C5.60139 5.47203 5.56709 5.66801 5.58433 5.86301C5.60158 6.058 5.66984 6.24589 5.78297 6.40982C5.89611 6.57374 6.05058 6.70856 6.23252 6.80218L9.70746 8.60108L13.9937 5.80673L13.9944 5.8071Z" fill="#006ee3"/>
</g>
<defs>
<clipPath id="clip0_3461_30673">
<rect width="24" height="24" fill="white" transform="translate(0.5)"/>
</clipPath>
</defs>
</svg>
