<svg width="25" height="24" viewBox="0 0 25 24" fill="none" xmlns="http://www.w3.org/2000/svg">
<path d="M19.6982 20.3326H10.0863C9.68341 20.3326 9.47595 20.0559 9.40467 19.9376C9.33418 19.8176 9.1892 19.5018 9.36942 19.1259L10.1624 17.4768C10.7351 17.701 11.3479 17.8318 11.9855 17.8318H18.4967C19.0846 17.8318 19.6413 17.5643 20.0226 17.0977C20.4039 16.631 20.5681 16.0127 20.4728 15.4019C20.3174 14.412 19.4315 13.6653 18.4118 13.6653H11.9967C11.4568 13.6653 10.9794 13.287 10.8376 12.7454L10.2065 10.3321H18.0962C18.5384 10.3321 18.8972 9.95964 18.8972 9.49883C18.8972 9.03801 18.5384 8.66553 18.0962 8.66553H9.77072L8.45789 3.64989C8.18876 2.5841 7.20354 1.87246 6.21111 2.01912C5.64721 2.10579 5.14419 2.43827 4.831 2.93159C4.51782 3.4249 4.4209 4.03571 4.56588 4.61069L6.96084 13.8337C7.26041 14.9828 7.90921 15.9586 8.76467 16.661L7.93725 18.3818C7.56238 19.1634 7.60163 20.0717 8.04298 20.8142C8.48433 21.5567 9.24767 22 10.0871 22H19.699C20.1412 22 20.5 21.6275 20.5 21.1667C20.5 20.7059 20.1412 20.3334 19.699 20.3334L19.6982 20.3326Z" fill="#006ee3"/>
</svg>
